<svg xmlns="http://www.w3.org/2000/svg" width="1200" height="630" viewBox="0 0 1200 630">
  <defs>
    <!-- Subtle dot grid pattern -->
    <pattern id="dotGrid" x="0" y="0" width="40" height="40" patternUnits="userSpaceOnUse">
      <circle cx="20" cy="20" r="1" fill="#6b7280" opacity="0.3"/>
    </pattern>
    
    <!-- Gradient for subtle depth -->
    <radialGradient id="bgGlow" cx="50%" cy="50%" r="70%">
      <stop offset="0%" stop-color="#1f2937"/>
      <stop offset="100%" stop-color="#111827"/>
    </radialGradient>
  </defs>
  
  <!-- Background -->
  <rect width="1200" height="630" fill="url(#bgGlow)"/>
  
  <!-- Dot grid pattern overlay -->
  <rect width="1200" height="630" fill="url(#dotGrid)"/>
  
  <!-- Corner brackets - top left -->
  <path d="M60 60 L60 100 M60 60 L100 60" stroke="#2563eb" stroke-width="2" fill="none" opacity="0.6"/>
  
  <!-- Corner brackets - top right -->
  <path d="M1140 60 L1140 100 M1140 60 L1100 60" stroke="#2563eb" stroke-width="2" fill="none" opacity="0.6"/>
  
  <!-- Corner brackets - bottom left -->
  <path d="M60 570 L60 530 M60 570 L100 570" stroke="#2563eb" stroke-width="2" fill="none" opacity="0.6"/>
  
  <!-- Corner brackets - bottom right -->
  <path d="M1140 570 L1140 530 M1140 570 L1100 570" stroke="#2563eb" stroke-width="2" fill="none" opacity="0.6"/>
  
  <!-- AMORLEX wordmark - scaled and centered -->
  <g transform="translate(300, 240) scale(3.5)">
    <path d="M0 24L5.4 8.4H8.1L13.5 24H10.8L9.6 20.4H3.9L2.7 24H0ZM4.5 18H9L6.75 11.1L4.5 18ZM16.2 24V8.4H19.8l3.6 10.8 3.6-10.8H30.6V24H28.2V13.2L24.6 24H22.2L18.6 13.2V24H16.2ZM38.7 24.3C37.1 24.3 35.8 23.8 34.8 22.8C33.8 21.8 33.3 20.4 33.3 18.6V13.8C33.3 12 33.8 10.6 34.8 9.6C35.8 8.6 37.1 8.1 38.7 8.1C40.3 8.1 41.6 8.6 42.6 9.6C43.6 10.6 44.1 12 44.1 13.8V18.6C44.1 20.4 43.6 21.8 42.6 22.8C41.6 23.8 40.3 24.3 38.7 24.3ZM38.7 21.9C39.5 21.9 40.1 21.6 40.5 21C40.9 20.4 41.1 19.6 41.1 18.6V13.8C41.1 12.8 40.9 12 40.5 11.4C40.1 10.8 39.5 10.5 38.7 10.5C37.9 10.5 37.3 10.8 36.9 11.4C36.5 12 36.3 12.8 36.3 13.8V18.6C36.3 19.6 36.5 20.4 36.9 21C37.3 21.6 37.9 21.9 38.7 21.9ZM47.4 24V8.4H52.8C54.4 8.4 55.7 8.8 56.6 9.6C57.5 10.4 57.9 11.5 57.9 12.9C57.9 14 57.6 14.9 57 15.6C56.4 16.3 55.6 16.7 54.6 16.8L58.2 24H55.2L51.9 17.1H50.1V24H47.4ZM50.1 14.7H52.5C53.3 14.7 53.9 14.5 54.3 14.1C54.7 13.7 54.9 13.2 54.9 12.6C54.9 12 54.7 11.5 54.3 11.1C53.9 10.7 53.3 10.5 52.5 10.5H50.1V14.7ZM61.2 24V8.4H63.9V21.6H71.4V24H61.2ZM74.1 24V8.4H83.7V10.8H76.8V14.7H82.5V17.1H76.8V21.6H83.7V24H74.1ZM90.6 24L86.1 16.2L90.3 8.4H93.3L89.4 15.3L93.6 24H90.6ZM86.7 24V8.4H89.4V24H86.7Z" fill="#fafafa"/>
  </g>
  
  <!-- Tagline -->
  <text x="600" y="380" font-family="'DM Sans', -apple-system, BlinkMacSystemFont, sans-serif" font-size="32" font-weight="500" fill="#6b7280" text-anchor="middle" letter-spacing="0.1em">SOFTWARE THAT WORKS</text>
  
  <!-- Subtle accent line -->
  <rect x="520" y="410" width="160" height="2" fill="#2563eb" opacity="0.8"/>
</svg>
